# xmcd
#
# Track frame offsets:
#  150
#  10227
#  20658
#  32321
#  41998
#  52937
#  62995
#  76354
#  86661
#  95673
#  105134
#  116313
#  125475
#  136701
#  148988
#  159241
#  169984
#  179247
#  190179
#  202818
#  212084
#  220703
#  231251
#  242190
#  251547
#  261997
#  272173
#  281062
#  294761
#  306152
#  316791
#  325858
#
# Disc length: 4498 seconds
#
# Revision: 0
# Processed by: cddbd v1.5.2PL0 Copyright (c) Steve Scherf et al.
# Submitted via: AltoMP3_Maker 3.0
#
DISCID=cd119020
DTITLE=Various Artist - Starday Hillbilly, Vol. 3
DYEAR=1900
DGENRE=
TTITLE0=Pat Patterson - Mister Hillbilly
TTITLE1=Johnny Sutherland - We'll Have a Good Time Yes Sir-ree
TTITLE2=Blackie Crawford - Hot Check Baby
TTITLE3=Fred Crawford - You Gotta Wait
TTITLE4=Mary Jo Chelette - Cat Fishing
TTITLE5=Jeanette Hicks - Extra-Extra
TTITLE6=Tommy Castle - Wanderlust
TTITLE7=Jimmie Walton - High as a Georgia Pine
TTITLE8=Ken Clark - Big Man
TTITLE9=Marty Licklider - Cold Hands Warm Heart
TTITLE10=Jimmie and Dorothy Blakley - You Left Me with the Blues
TTITLE11=Gene Tabor - Country Saturday Night
TTITLE12=Red Mansel - I've Crossed You off My List
TTITLE13=Bill Potter - I Lost My Gal
TTITLE14=Bob Jones - You Better Behave Baby
TTITLE15=De Wayne Higdon - Take Your Time
TTITLE16=King Sterling - Too Many Taverns
TTITLE17=Corky Carpenter - My Heart Would Like to Know
TTITLE18=Joe Price - It Makes Me Happy
TTITLE19=Earney Vandagriff - Where You Been
TTITLE20=Jim Cunningham - A Pain a Pill Won't Patch
TTITLE21=Jimmie Walton - I'll Live That Name
TTITLE22=Joe Gibson - Puttin' on the Dog
TTITLE23=Orville Couch - King for a Day
TTITLE24=Patsy Elshire - You Can't Play in My Playhouse
TTITLE25=Don Payne - Kickaroo
TTITLE26=Johnny Sutherland - I'm in Love
TTITLE27=Joe Price - Typhoon
TTITLE28=Pat Patterson - First You Buy the Beer
TTITLE29=Patsy Elshire - Someday I Know He Will
TTITLE30=Lucky Hill - I'm Missing You
TTITLE31=Dick Stubbs - Wired for Sound
EXTD=
EXTT0=
EXTT1=
EXTT2=
EXTT3=
EXTT4=
EXTT5=
EXTT6=
EXTT7=
EXTT8=
EXTT9=
EXTT10=
EXTT11=
EXTT12=
EXTT13=
EXTT14=
EXTT15=
EXTT16=
EXTT17=
EXTT18=
EXTT19=
EXTT20=
EXTT21=
EXTT22=
EXTT23=
EXTT24=
EXTT25=
EXTT26=
EXTT27=
EXTT28=
EXTT29=
EXTT30=
EXTT31=
PLAYORDER=
